<?xml version="1.0" encoding="UTF-8" standalone="no"?>
<!DOCTYPE svg PUBLIC "-//W3C//DTD SVG 1.1//EN" "http://www.w3.org/Graphics/SVG/1.1/DTD/svg11.dtd">
<svg width="100%" height="100%" viewBox="0 0 80 80" version="1.1" xmlns="http://www.w3.org/2000/svg" xmlns:xlink="http://www.w3.org/1999/xlink" xml:space="preserve" xmlns:serif="http://www.serif.com/" style="fill-rule:evenodd;clip-rule:evenodd;stroke-linejoin:round;stroke-miterlimit:2;">
    <g transform="matrix(0.125,0,0,0.125,-20,0)">
        <path d="M480,640C655.315,640 797.436,496.731 797.436,320C797.436,143.269 655.317,0 480,0C304.683,0 162.563,143.269 162.563,320C162.563,496.731 304.684,640 480.001,640L480,640Z" style="fill:rgb(108,172,228);fill-rule:nonzero;"/>
    </g>
    <g transform="matrix(0.125,0,0,0.125,-20,0)">
        <path d="M480,590.726C629.517,590.726 750.726,469.518 750.726,320C750.726,170.482 629.518,49.275 480,49.275C330.482,49.275 209.274,170.483 209.274,320C209.274,469.517 330.482,590.726 480,590.726Z" style="fill:rgb(108,172,228);fill-rule:nonzero;"/>
    </g>
    <g transform="matrix(0.125,0,0,0.125,-20,0)">
        <path d="M480,49.275C629.532,49.275 750.726,170.467 750.726,320C750.726,469.533 629.533,590.725 480,590.725C330.467,590.725 209.203,469.533 209.203,320C209.203,170.467 330.467,49.275 480.001,49.275L480,49.275ZM480,27.699C440.551,27.699 402.243,35.461 366.212,50.699C331.393,65.439 300.133,86.515 273.288,113.36C246.444,140.205 225.368,171.464 210.628,206.284C195.39,242.314 187.628,280.623 187.628,320.071C187.628,359.519 195.39,397.828 210.628,433.859C225.368,468.678 246.445,499.938 273.288,526.782C300.133,553.627 331.393,574.704 366.212,589.444C402.243,604.682 440.552,612.443 480,612.443C519.448,612.443 557.757,604.682 593.787,589.444C628.607,574.704 659.867,553.627 686.711,526.782C713.556,499.938 734.633,468.678 749.372,433.859C764.61,397.828 772.372,359.519 772.372,320.071C772.372,280.623 764.61,242.314 749.372,206.284C734.633,171.464 713.556,140.205 686.712,113.36C659.866,86.515 628.607,65.438 593.787,50.699C557.757,35.461 519.448,27.699 480,27.699Z" style="fill:white;fill-rule:nonzero;"/>
    </g>
    <g transform="matrix(0.125,0,0,0.125,-20,0)">
        <path d="M345.135,187.486L312.025,148.536L318.291,143.196L332.318,159.715L345.563,148.465L331.535,131.945L337.801,126.604L370.912,165.554L364.646,170.895L350.618,154.446L337.374,165.697L351.402,182.145L345.135,187.486Z" style="fill:white;fill-rule:nonzero;"/>
    </g>
    <g transform="matrix(0.125,0,0,0.125,-20,0)">
        <path d="M345.065,188.34L311.171,148.465L318.363,142.341L332.39,158.861L344.709,148.394L330.682,131.874L337.872,125.75L371.766,165.625L364.576,171.749L350.548,155.301L338.228,165.768L352.256,182.216L345.065,188.34ZM312.95,148.607L345.278,186.631L350.618,182.074L336.591,165.625L350.761,153.592L364.788,170.04L370.129,165.483L337.801,127.459L332.461,132.016L346.489,148.536L332.319,160.57L318.292,144.05L312.951,148.607L312.95,148.607ZM395.193,151.384L388.357,148.678L372.337,111.224L375.042,104.388L396.689,95.131L403.524,97.837L419.546,135.292L416.769,142.127L395.122,151.384L395.193,151.384ZM396.618,142.412L409.435,136.929L410.361,134.722L397.686,105.029L395.408,104.175L382.59,109.657L381.664,111.865L394.339,141.558L396.617,142.412L396.618,142.412Z" style="fill:white;fill-rule:nonzero;"/>
    </g>
    <g transform="matrix(0.125,0,0,0.125,-20,0)">
        <path d="M395.264,152.025L388.001,149.105L371.839,111.224L374.758,103.961L396.832,94.561L404.166,97.41L420.33,135.291L417.339,142.554L395.265,151.954L395.265,152.025L395.264,152.025ZM388.856,148.251L395.193,150.814L416.341,141.771L418.976,135.434L403.168,98.407L396.76,95.914L375.612,104.958L373.048,111.295L388.856,148.322L388.856,148.251ZM396.618,143.053L393.913,142.056L381.023,111.936L382.163,109.23L395.407,103.533L398.114,104.53L411.002,134.651L409.862,137.356L396.617,143.053L396.618,143.053ZM394.767,141.059L396.547,141.771L408.937,136.502L409.719,134.722L397.259,105.527L395.479,104.815L383.089,110.084L382.306,111.865L394.766,141.059L394.767,141.059ZM448.67,133.939L442.973,129.31L438.772,88.794L443.401,83.098L466.756,80.677L472.524,85.305L473.806,97.481L465.616,98.336L464.761,90.361L462.839,88.865L448.954,90.289L447.387,92.141L450.663,124.255L452.585,125.75L466.47,124.326L468.037,122.474L467.182,114.499L475.372,113.645L476.653,125.821L471.953,131.518L448.598,133.939L448.67,133.939Z" style="fill:white;fill-rule:nonzero;"/>
    </g>
    <g transform="matrix(0.125,0,0,0.125,-20,0)">
        <path d="M448.527,134.58L442.474,129.666L438.274,88.652L443.186,82.599L443.4,82.599L467.04,80.107L473.164,85.02L474.517,98.05L465.118,99.048L464.263,90.717L462.768,89.507L449.381,90.859L448.099,92.354L451.375,123.97L452.87,125.18L466.257,123.827L467.539,122.332L466.684,114.001L476.084,113.004L477.436,126.035L472.452,132.087L472.238,132.087L448.598,134.58L448.527,134.58ZM443.543,129.025L448.812,133.369L471.669,131.019L476.084,125.679L474.944,114.357L467.966,115.069L468.749,122.688L466.826,124.896L452.514,126.391L450.235,124.611L446.889,91.998L448.811,89.791L463.125,88.296L465.403,90.076L466.187,97.695L473.165,96.983L472.025,85.661L466.685,81.389L443.828,83.739L439.484,89.008L443.614,129.025L443.543,129.025ZM500.223,132.087L510.05,81.958L518.167,83.525L513.966,104.815L522.296,106.453L535.969,87.013L544.798,88.723L528.634,111.58L534.972,138.852L526.142,137.143L520.802,114.001L512.471,112.363L508.269,133.654L500.152,132.087L500.223,132.087Z" style="fill:white;fill-rule:nonzero;"/>
    </g>
    <g transform="matrix(0.125,0,0,0.125,-20,0)">
        <path d="M535.755,139.635L525.644,137.641L520.303,114.499L512.969,113.075L508.768,134.366L499.511,132.514L509.551,81.174L518.808,83.026L514.607,104.317L521.941,105.741L535.611,86.301L545.723,88.295L529.203,111.722L535.683,139.635L535.755,139.635ZM526.64,136.644L534.187,138.14L527.992,111.509L543.8,89.149L536.252,87.655L522.582,107.094L513.324,105.242L517.525,83.952L510.618,82.599L501.005,131.589L507.912,132.942L512.113,111.651L521.37,113.502L526.711,136.644L526.64,136.644ZM554.553,146.471L578.407,101.255L605.964,115.781L602.333,122.617L582.039,111.936L575.488,124.326L593.432,133.796L589.872,140.49L571.928,131.019L565.377,143.409L585.742,154.161L582.11,160.997L554.41,146.4L554.553,146.471Z" style="fill:white;fill-rule:nonzero;"/>
    </g>
    <g transform="matrix(0.125,0,0,0.125,-20,0)">
        <path d="M582.537,161.851L553.77,146.684L578.194,100.472L606.819,115.567L602.617,123.471L582.324,112.79L576.342,124.112L594.286,133.582L590.156,141.344L572.212,131.874L566.231,143.195L586.596,153.947L582.395,161.851L582.537,161.851ZM555.337,146.186L581.967,160.214L585.029,154.446L564.664,143.694L571.784,130.236L589.728,139.706L592.719,134.081L574.775,124.611L581.895,111.153L602.189,121.834L605.251,116.066L578.762,102.109L555.478,146.257L555.336,146.186L555.337,146.186ZM608.528,182.359L622.198,168.402L622.198,162.35L633.948,135.719L640.285,141.914L629.961,165.483L631.1,166.622L654.384,155.728L660.722,161.923L634.446,174.17L628.394,174.384L614.722,188.34L608.599,182.288L608.528,182.359Z" style="fill:white;fill-rule:nonzero;"/>
    </g>
    <g transform="matrix(0.125,0,0,0.125,-20,0)">
        <path d="M614.65,189.266L607.672,182.43L621.628,168.189L621.771,162.136L633.734,134.722L640.997,141.771L630.673,165.341L631.242,165.91L654.527,155.016L661.79,162.065L634.518,174.74L628.75,174.953L614.794,189.195L614.651,189.266L614.65,189.266ZM609.381,182.359L614.651,187.557L628.109,173.814L634.232,173.6L659.652,161.78L654.242,156.511L630.957,167.406L629.247,165.697L639.573,142.127L634.162,136.858L622.911,162.563L622.911,168.758L609.381,182.501L609.381,182.359ZM370.13,534.758L367.566,527.922L384.371,490.823L391.207,488.26L412.64,497.944L415.274,504.851L410.219,516.03L402.671,512.612L405.946,505.278L405.02,503L392.345,497.232L390.066,498.015L376.751,527.423L377.676,529.703L390.351,535.47L392.631,534.686L395.906,527.352L403.453,530.77L398.397,541.949L391.49,544.513L370.057,534.829L370.129,534.758L370.13,534.758Z" style="fill:white;fill-rule:nonzero;"/>
    </g>
    <g transform="matrix(0.125,0,0,0.125,-20,0)">
        <path d="M391.563,545.082L369.702,535.185L366.925,527.85L383.872,490.254L391.207,487.477L413.067,497.374L415.915,504.708L410.503,516.671L401.887,512.755L405.305,505.136L404.593,503.356L392.346,497.801L390.495,498.442L377.393,527.352L378.105,529.132L390.352,534.686L392.202,534.045L395.621,526.426L404.237,530.343L398.826,542.305L391.42,545.011L391.563,545.082ZM370.628,534.33L391.563,543.801L398.042,541.38L402.742,530.983L396.332,528.064L393.199,535.042L390.422,536.039L377.249,530.129L376.181,527.423L389.711,497.588L392.488,496.591L405.661,502.501L406.73,505.207L403.596,512.185L410.005,515.104L414.705,504.708L412.212,498.3L391.278,488.829L384.868,491.25L368.278,527.922L370.698,534.33L370.628,534.33ZM430.512,556.262L437.775,505.705L445.964,506.916L439.769,549.782L462.626,553.057L461.486,560.819L430.511,556.333L430.511,556.262L430.512,556.262Z" style="fill:white;fill-rule:nonzero;"/>
    </g>
    <g transform="matrix(0.125,0,0,0.125,-20,0)">
        <path d="M462.057,561.389L429.872,556.76L437.348,504.993L446.676,506.346L440.481,549.212L463.338,552.488L462.056,561.389L462.057,561.389ZM431.224,555.763L461.059,560.036L461.985,553.485L439.127,550.209L445.322,507.343L438.344,506.346L431.224,555.763ZM500.935,560.249L495.095,555.834L488.972,510.334L497.161,509.194L502.715,550.494L504.638,551.918L518.523,550.067L519.947,548.144L514.322,506.845L522.511,505.705L528.634,551.206L524.22,557.045L500.935,560.178L500.935,560.249Z" style="fill:white;fill-rule:nonzero;"/>
    </g>
    <g transform="matrix(0.125,0,0,0.125,-20,0)">
        <path d="M500.793,560.89L494.598,556.119L488.332,509.764L497.66,508.482L503.284,550.138L504.779,551.277L518.166,549.497L519.306,548.002L513.681,506.346L523.009,505.064L529.275,551.42L524.504,557.615L500.722,560.819L500.792,560.89L500.793,560.89ZM495.666,555.478L501.078,559.608L523.864,556.546L527.992,551.135L521.94,506.489L514.962,507.414L520.516,548.358L518.807,550.636L504.423,552.559L502.145,550.849L496.591,509.906L489.612,510.832L495.665,555.478L495.666,555.478ZM564.165,546.364L543.017,499.867L569.007,488.046L575.844,490.61L582.253,504.709L579.973,510.761L579.973,510.904L586.31,513.182L592.861,527.637L590.298,534.473L564.165,546.364ZM559.538,516.173L573.708,509.764L574.562,507.557L570.147,497.802L567.94,496.947L553.77,503.356L559.609,516.173L559.538,516.173ZM568.581,536.039L582.893,529.56L583.677,527.281L579.119,517.312L576.841,516.386L562.528,522.866L568.51,536.039L568.581,536.039Z" style="fill:white;fill-rule:nonzero;"/>
    </g>
    <g transform="matrix(0.125,0,0,0.125,-20,0)">
        <path d="M563.88,547.147L542.234,499.51L569.007,487.334L576.341,490.111L582.964,504.637L580.756,510.476L586.737,512.684L593.502,527.566L590.725,534.9L563.809,547.147L563.88,547.147ZM543.871,500.151L564.521,545.581L589.871,534.045L592.293,527.637L585.955,513.68L579.689,511.402L579.404,510.832L581.683,504.708L575.488,491.037L569.078,488.616L543.872,500.08L543.872,500.151L543.871,500.151ZM568.225,536.822L561.745,522.581L576.84,515.745L579.546,516.814L584.246,527.21L583.248,529.987L568.153,536.822L568.225,536.822ZM563.383,523.151L568.866,535.256L582.395,529.132L583.035,527.281L578.691,517.739L576.911,517.027L563.382,523.151L563.383,523.151ZM559.253,516.956L552.916,503.071L567.869,496.306L570.575,497.303L575.203,507.557L574.206,510.263L559.253,517.027L559.253,516.956ZM554.481,503.64L559.822,515.389L573.208,509.337L573.849,507.557L569.649,498.229L567.869,497.588L554.481,503.64Z" style="fill:white;fill-rule:nonzero;"/>
    </g>
    <g transform="matrix(0.125,0,0,0.125,-20,0)">
        <path d="M480.142,261.753L480.142,231.989L380.382,231.989L380.382,262.181C391.704,262.038 403.097,261.967 414.419,261.896C414.419,313.734 414.419,365.643 414.349,417.481C424.815,417.054 435.353,416.769 445.821,416.555L445.821,261.753L480.142,261.753ZM547.29,231.633L505.848,231.633C494.312,293.155 482.848,354.535 471.241,416.128C482.349,416.128 493.458,416.128 504.637,416.271C506.347,405.447 507.984,394.624 509.693,383.729C521.085,383.872 532.407,384.157 543.8,384.513C545.58,395.478 547.29,406.444 549.07,417.481C560.106,417.908 571.215,418.478 582.251,419.119C570.645,355.888 558.967,293.511 547.361,231.633L547.289,231.633L547.29,231.633ZM514.037,354.321C518.167,327.121 522.367,299.849 526.497,272.577C530.77,299.92 535.043,327.263 539.244,354.749C530.842,354.535 522.439,354.393 514.037,354.321ZM334.384,386.578C334.384,388.002 333.886,389.284 332.96,390.423C332.034,391.562 330.824,392.203 329.4,392.274C322.066,392.844 314.73,393.413 307.397,394.054C305.973,394.197 304.834,393.769 303.837,392.844C302.911,391.918 302.413,390.779 302.413,389.283C302.413,336.805 302.413,284.326 302.483,231.847L271.082,231.847L271.082,392.203C271.082,397.543 272.008,402.457 273.93,406.943C275.853,411.429 278.416,415.203 281.692,418.336C284.967,421.469 288.884,423.747 293.37,425.243C297.856,426.738 302.626,427.236 307.61,426.667C314.866,425.884 322.13,425.171 329.4,424.53C334.384,424.103 339.155,422.679 343.57,420.401C347.985,418.122 351.83,415.131 355.105,411.571C358.381,408.011 361.015,403.881 362.938,399.181C364.86,394.482 365.786,389.568 365.786,384.513C365.786,333.6 365.856,282.759 365.929,231.847L334.527,231.847C334.527,283.4 334.455,334.953 334.384,386.506L334.384,386.578ZM659.51,302.199C648.007,305.246 636.495,308.261 624.975,311.242L624.975,231.918L593.573,231.918C593.573,294.508 593.644,357.17 593.716,419.76C604.183,420.472 614.65,421.255 625.118,422.181L625.118,341.932C636.653,339.083 648.118,336.235 659.652,333.387L659.652,425.456C670.12,426.596 680.587,427.806 690.983,429.088L690.983,231.918L659.582,231.918L659.582,302.127L659.511,302.199L659.51,302.199Z" style="fill:rgb(1,1,1);fill-rule:nonzero;"/>
    </g>
</svg>
